<svg data-name="Layer 1" xmlns="http://www.w3.org/2000/svg" viewBox="0 0 24 24"><path d="M19.46 21.12l-.08.05a.31.31 0 00-.1 0h-.05v-.09a2.22 2.22 0 01.23-.52 1.44 1.44 0 01.36-.42.77.77 0 010 .56.78.78 0 01-.36.42zm-2.46.61l.39-.44.4-.45a.86.86 0 01-.29.61c-.21.24-.38.33-.49.28zM14.75 19a2.19 2.19 0 010 .27c0 .09-.05.18-.07.26-.09.3-.2.6-.31.88s-.23.58-.36.87l-.09.15a.36.36 0 00-.08.15h-.05a.16.16 0 01-.1.05s-.06 0-.08-.08a1 1 0 01-.05-.16 1.16 1.16 0 010-.18.36.36 0 010-.11V21a2.36 2.36 0 01.13-.8 3.12 3.12 0 01.35-.74 1.89 1.89 0 01.2-.27.83.83 0 01.16-.19l.1-.06h.11a.1.1 0 01.14.12zm-3.2 2.42a2 2 0 01-.21.77 2.07 2.07 0 01-.51.6 1.46 1.46 0 01-.38.27 1.33 1.33 0 01-.44.14h-.17a.47.47 0 01-.17 0 .44.44 0 01-.17-.2.65.65 0 010-.2 1 1 0 01.06-.34 1.38 1.38 0 01.14-.3 1.22 1.22 0 01.27-.36 3.18 3.18 0 01.33-.3l.58-.41.6-.37a1.86 1.86 0 01.07.34 1.29 1.29 0 010 .34zM24 20.58a1.4 1.4 0 00-.22-.61 2 2 0 00-.45-.47 1.75 1.75 0 00-.67-.36 3.09 3.09 0 00-.75-.12 4.44 4.44 0 00-.63 0c-.2 0-.41.08-.61.14l-.17.07-.18.07a3 3 0 00-.17-.36 1.52 1.52 0 01-.11-.38v-.29A.86.86 0 0120 18a2.29 2.29 0 01.07-.28 2.76 2.76 0 01.08-.27.13.13 0 000-.12.14.14 0 00-.08-.07h-.11a1.13 1.13 0 00-.32 0 1.75 1.75 0 00-.33.06.23.23 0 00-.1.05.1.1 0 000 .09.41.41 0 000 .08.14.14 0 010 .06l-.09.31a1.69 1.69 0 01-.1.27c-.12.24-.24.47-.37.69l-.38.68-.06.07a.43.43 0 010 .07c-.05-.09-.1-.18-.14-.27a.89.89 0 01-.08-.29 2 2 0 010-.34 1.37 1.37 0 010-.35c0-.08.05-.16.07-.25l.09-.25v-.09a.14.14 0 00-.07-.06h-.07a1.4 1.4 0 00-.35 0 1.86 1.86 0 00-.34.07.19.19 0 00-.09.05V18l-.09.31-.11.3-1.09 2.37a2.72 2.72 0 01-.11.25 1.71 1.71 0 01-.13.23.25.25 0 000 .07l-.05.06a.86.86 0 000-.16.76.76 0 010-.15l.1-.44.11-.44.09-.37c0-.12.07-.24.1-.36a.5.5 0 000-.12.14.14 0 000-.1.33.33 0 00-.22-.11.24.24 0 00-.21.06 2.64 2.64 0 000-.28 1.24 1.24 0 000-.27.49.49 0 00-.18-.26.51.51 0 00-.3-.1h-.17l-.17.05a2 2 0 00-.58.34 4.25 4.25 0 00-.47.48h-.05l-.55.31-.57.29-.2.11-.21.1-.16-.14-.16-.15-.52-.41c-.18-.13-.35-.27-.53-.42s-.3-.24-.45-.37a3.31 3.31 0 01-.4-.44 2.32 2.32 0 01-.2-.38 1.43 1.43 0 01-.09-.42 1.41 1.41 0 01.07-.54 2.05 2.05 0 01.22-.5 3.14 3.14 0 01.45-.57l.52-.48c.21-.16.41-.3.63-.44l.65-.39 1-.47a9.25 9.25 0 011-.37 7.84 7.84 0 011.07-.23 5.05 5.05 0 011.1 0l.43.07a2 2 0 01.4.17 1.15 1.15 0 01.26.19.68.68 0 01.18.26 1 1 0 01.05.34 1.73 1.73 0 010 .32 1.94 1.94 0 01-.26.61 2.78 2.78 0 01-.41.51 4.23 4.23 0 01-.84.69 4.43 4.43 0 01-1 .45 4.37 4.37 0 01-.62.17 5.93 5.93 0 01-.63.1 4.34 4.34 0 01-.51 0 2.36 2.36 0 01-.51-.12 2.1 2.1 0 01-.3-.15.86.86 0 01-.25-.22.08.08 0 00-.07 0 .05.05 0 000 .05.08.08 0 000 .07v.12l.06.1a1.12 1.12 0 00.19.24 1.88 1.88 0 00.24.18 1.61 1.61 0 00.53.22 3.68 3.68 0 00.58.08 5.14 5.14 0 00.88-.05 8.71 8.71 0 00.86-.17 5.17 5.17 0 00.59-.68 4.07 4.07 0 001-.76 4.39 4.39 0 00.59-.84 2.68 2.68 0 00.29-1 2.17 2.17 0 000-.51 1.76 1.76 0 00-.16-.49 1.58 1.58 0 00-.34-.43 3.13 3.13 0 00-.46-.32 3.44 3.44 0 00-.76-.27 4.48 4.48 0 00-.82-.1H15a5.66 5.66 0 00-1.93.39l-.71.26c-.23.1-.45.2-.67.32a10.88 10.88 0 00-1.41.8 6.52 6.52 0 00-1.24 1 5 5 0 00-.51.63 3.68 3.68 0 00-.37.71l-.06.24c0 .08 0 .16-.05.23v.21a.2.2 0 010 .08.31.31 0 010 .1 2.45 2.45 0 00.22.5 3.76 3.76 0 00.32.46 6.11 6.11 0 00.58.56c.21.17.42.33.65.49l.56.39.59.41.09.07.1.08H11a6.79 6.79 0 00-.75.41 7.05 7.05 0 00-.7.46l-.39.33a1.84 1.84 0 00-.31.38 1.81 1.81 0 00-.29.71 1.42 1.42 0 00.09.75.91.91 0 00.13.22 1.45 1.45 0 00.18.17h.36l.19.05h.39a2.57 2.57 0 00.61-.14 3 3 0 00.57-.28 2.85 2.85 0 00.68-.66 2.42 2.42 0 00.39-.86 2.67 2.67 0 00.09-.69 2.37 2.37 0 00-.11-.69.19.19 0 000-.07.13.13 0 010-.06v-.14l.44-.25.44-.23v.08a.25.25 0 000 .07c-.05.19-.1.38-.13.56a2.79 2.79 0 000 .58 2.9 2.9 0 00.12.6 1.55 1.55 0 00.28.54.47.47 0 00.43.22.56.56 0 00.45-.2l.11-.16a.6.6 0 00.09-.15c.08-.15.15-.3.22-.44l.2-.44v.39a1.28 1.28 0 00.06.55.58.58 0 00.13.2.34.34 0 00.21.09.25.25 0 00.17 0 .67.67 0 00.14-.09 1.07 1.07 0 00.19-.18.86.86 0 00.15-.22c.13-.22.25-.44.37-.66s.24-.44.35-.65l.33-.74c.11-.25.22-.49.34-.73V19a2.46 2.46 0 00.07.29 1.31 1.31 0 00.09.28 1.61 1.61 0 00.12.33 1.77 1.77 0 00.15.31.3.3 0 010 .13.41.41 0 01-.06.11l-.44.52-.42.51a.52.52 0 01-.1.11.83.83 0 00-.08.12V21.88a.22.22 0 000 .16.2.2 0 00.15.09h.35a1.69 1.69 0 00.56-.12 2.19 2.19 0 00.5-.27 1.15 1.15 0 00.42-.52 1.26 1.26 0 000-.67.82.82 0 00-.06-.19l-.07-.18a.25.25 0 010-.08v-.08c.17-.23.32-.46.47-.71s.28-.49.4-.74a4.85 4.85 0 00.16.63 2.66 2.66 0 00.28.59l-.17.16-.16.15a3.66 3.66 0 00-.32.39 1.85 1.85 0 00-.23.44 1.55 1.55 0 000 .21.74.74 0 000 .21.4.4 0 00.14.28.35.35 0 00.3.05 2.23 2.23 0 00.68-.26 2.05 2.05 0 00.55-.47.77.77 0 00.18-.43 1 1 0 000-.46.74.74 0 000-.14.65.65 0 000-.13l.18-.06.18-.05a3.75 3.75 0 01.94-.09 3.1 3.1 0 01.94.2 1.38 1.38 0 01.81.69.81.81 0 01.08.6.88.88 0 01-.38.49h-.07l-.06.05a.58.58 0 00.19 0l.17-.1a1.3 1.3 0 00.31-.31.76.76 0 00.15-.41v-.21z" fill="#aa759f" fill-rule="evenodd"/><path d="M7.11 16.45l.08-.29v-.05a4.36 4.36 0 01.47-.91 5.18 5.18 0 01.62-.78 8 8 0 011.41-1.18 14.93 14.93 0 011.52-.86c.23-.12.48-.24.73-.34s.5-.2.77-.29a7.91 7.91 0 011.07-.31 7.5 7.5 0 011.22-.13h.57a5.38 5.38 0 011 .12 4.77 4.77 0 011 .36 3.67 3.67 0 01.66.46 2.53 2.53 0 01.83 1.54 3.22 3.22 0 010 .76 3.44 3.44 0 01-.4 1.31 5.34 5.34 0 01-.56.84h.08l.13.06a1.2 1.2 0 01.26-.29 1.19 1.19 0 01.48-.23 2.46 2.46 0 01.47-.09h.2a1.84 1.84 0 01.33 0h.23l.24.1a1.09 1.09 0 01.52.53 1.13 1.13 0 01.07.74v.06L21 18v.12h.15a5.12 5.12 0 01.78-.06 4.2 4.2 0 011 .16H23V7.4a2.22 2.22 0 00-2.2-2.2H12L9.8 3H3.2A2.22 2.22 0 001 5.2v13.6a2 2 0 002.2 2h5.38c.11-.1.22-.2.34-.29a4.44 4.44 0 01.38-.27h-.05q-.37-.25-.72-.54a7 7 0 01-.68-.7 6.09 6.09 0 01-.44-.62 4.82 4.82 0 01-.3-.66 2.82 2.82 0 00-.05-.38 3.66 3.66 0 010-.44z" fill="#474C60"/></svg>