<svg data-name="Layer 1" xmlns="http://www.w3.org/2000/svg" viewBox="0 0 24 24"><path d="M11.58 18.63A6.71 6.71 0 0123 13.91V7.4a2.22 2.22 0 00-2.2-2.2H12L9.8 3H3.2A2.22 2.22 0 001 5.2v13.6a2 2 0 002.2 2H12a6.63 6.63 0 01-.42-2.17z" fill="#4a616c"/><path d="M23 15.43A5.72 5.72 0 0018.29 13a5.69 5.69 0 00-5.71 5.66A5.44 5.44 0 0013 20.8a5.68 5.68 0 003.49 3.2c.28.05.39-.12.39-.27v-1c-1.6.27-1.94-.73-1.94-.73a1.54 1.54 0 00-.63-.83c-.52-.35 0-.34 0-.34a1.19 1.19 0 01.87.58 1.24 1.24 0 001.67.47 1.2 1.2 0 01.36-.75A4.19 4.19 0 0116 20.8a2.4 2.4 0 01-1.34-2.47 2.16 2.16 0 01.59-1.52 2 2 0 010-1.49s.48-.15 1.57.58a5.48 5.48 0 012.86 0c1.09-.73 1.57-.58 1.57-.58a2.09 2.09 0 01.06 1.5 2.16 2.16 0 01.58 1.51 2.4 2.4 0 01-1.34 2.47 4.17 4.17 0 01-1.26.32 1.37 1.37 0 01.38 1.05v1.55c0 .15.1.32.39.27A5.66 5.66 0 0024 18.63a5.6 5.6 0 00-1-3.2z" fill="#89a6af"/></svg>