<svg width="32" height="32" xmlns="http://www.w3.org/2000/svg"><g fill="none" fill-rule="evenodd"><path d="M19.284 25.77l6.974-19.392c.118-.329-.068-.569-.416-.535l-5.484.528c-.348.034-.724.329-.839.659l-6.455 18.532c-.115.33.076.598.425.598h5.338a.483.483 0 00.424-.298l.033-.092z" fill="#78909C"/><path fill="#EBEBEB" fill-rule="nonzero" d="M18.489 25.862l-2.904-8.387.415-.26 2.955 8.555z"/><path d="M6.158 5.843l5.484.528c.348.034.724.329.84.659l6.591 18.832c.058.164-.037.298-.212.298h-5.372a.965.965 0 01-.847-.596l-6.9-19.186c-.118-.329.068-.569.416-.535z" fill="#3965BD"/></g></svg>