<svg data-name="Layer 1" xmlns="http://www.w3.org/2000/svg" viewBox="0 0 24 24"><path d="M23.78 17.93l-4.86-4.86a.66.66 0 00-.5-.21.73.73 0 00-.52.21l-1 1 1.28 1.28a.77.77 0 01.45 0 .92.92 0 01.43.24.82.82 0 01.22.41.83.83 0 010 .47l1.23 1.24a.72.72 0 01.46 0 .73.73 0 01.42.23.79.79 0 01.25.6.85.85 0 01-.85.85.84.84 0 01-.83-.69.91.91 0 010-.49L18.83 17v3l.12.07.11.09a.84.84 0 010 1.2.85.85 0 11-1.2-1.2.69.69 0 01.13-.11l.15-.08V17a.71.71 0 01-.15-.08l-.13-.1a.79.79 0 01-.25-.45.85.85 0 01.06-.5l-1.26-1.26-3.33 3.35a.68.68 0 000 1l4.86 4.86a.67.67 0 00.5.22.7.7 0 00.51-.22L23.78 19a.67.67 0 00.22-.51.7.7 0 00-.22-.51z" fill="#d14748" fill-rule="evenodd"/><path d="M12.37 19.63a1.64 1.64 0 01-.51-1.21 1.67 1.67 0 01.54-1.24l3.09-3.1 1.71-1.71a1.68 1.68 0 011.23-.51 1.63 1.63 0 011.23.53L23 15.74V7.4a2.22 2.22 0 00-2.2-2.2H12L9.8 3H3.2A2.22 2.22 0 001 5.2v13.6a2 2 0 002.2 2h10.34z" fill="#90A4AE"/></svg>