<svg xmlns="http://www.w3.org/2000/svg" width="24" height="24"><path d="M11.631 5.837A11.29 7.632 1.132 00.905 11.408c-.011.02-.024.038-.033.058-.047.076-.057.163-.075.248a11.29 7.632 1.132 00-.275 1.757 11.29 7.632 1.132 007.237 7.077V8.792h4.594c.628 0 1.168.042 1.62.127.452.085.876.27 1.27.553.4.283.716.651.949 1.104.238.448.358 1.011.358 1.69 0 .935-.185 1.697-.552 2.286-.361.59-.88 1.078-1.555 1.469l2.845 4.346a10.182 7.631 1.725 003.27-1.978 11.29 7.632 1.132 002.54-4.918 11.29 7.632 1.132 00-4.654-6.093 10.182 7.631 1.725 00-4.521-1.381 11.29 7.632 1.132 00-.247-.03 10.182 7.631 1.725 00-.294-.028 11.29 7.632 1.132 00-1.75-.102zm-1.148 5.282v3.406h.843a6.62 6.62 0 001.098-.075c.295-.05.542-.168.742-.349.19-.175.328-.369.414-.578.09-.215.135-.5.135-.857a1.86 1.86 0 00-.162-.815c-.11-.227-.3-.406-.566-.537a1.738 1.738 0 00-.649-.16 9.546 9.546 0 00-.863-.035h-.992zm0 5.683v4.226a11.29 7.632 1.132 00.84.054 10.182 7.631 1.725 001.45.09 10.182 7.631 1.725 001.639-.104l-2.666-4.266h-1.263z" fill="#6a9fb5" stroke-width="1.205"/></svg>