<svg xmlns="http://www.w3.org/2000/svg" width="32" height="32"><path fill="#D14748" fill-rule="evenodd" d="M26.383 6.014V6.01a8.093 8.093 0 011.392 6.141 7.604 7.604 0 01-1.142 2.852 8.006 8.006 0 01.792 5.157 7.607 7.607 0 01-3.452 5.101l-6.661 4.234c-3.794 2.41-9.03 1.286-11.697-2.503a8.103 8.103 0 01-1.39-6.141 7.604 7.604 0 011.142-2.852 8.006 8.006 0 01-.792-5.152 7.602 7.602 0 013.452-5.102l6.661-4.234c3.794-2.409 9.04-1.285 11.695 2.504zM14.039 27.341h.002a4.827 4.827 0 001.353-.592l6.652-4.232a4.591 4.591 0 002.075-3.069 4.87 4.87 0 00-.836-3.692 5.298 5.298 0 00-5.68-2.098 4.827 4.827 0 00-1.353.592l-2.54 1.614c-.127.08-.265.14-.41.18a1.598 1.598 0 01-1.712-.634 1.446 1.446 0 01-.242-1.112 1.38 1.38 0 01.625-.925l6.667-4.217c.126-.08.263-.14.407-.18a1.595 1.595 0 011.712.634c.203.287.298.636.269.986l-.024.242.242.075c.937.28 1.818.72 2.606 1.297l.342.242.126-.382c.067-.203.12-.41.158-.62a4.87 4.87 0 00-.842-3.693 5.296 5.296 0 00-5.677-2.098 4.827 4.827 0 00-1.353.592l-6.652 4.232a4.591 4.591 0 00-2.075 3.069 4.87 4.87 0 00.829 3.692 5.298 5.298 0 005.68 2.098 4.827 4.827 0 001.353-.592l2.55-1.614c.127-.08.265-.14.41-.18a1.598 1.598 0 011.711.634c.227.323.314.724.243 1.112-.07.382-.299.718-.628.925l-6.65 4.232c-.126.08-.263.14-.407.179a1.595 1.595 0 01-1.729-.648 1.495 1.495 0 01-.269-.986l.024-.242-.242-.075a8.573 8.573 0 01-2.606-1.297l-.342-.242-.126.382a4.58 4.58 0 00-.158.62 4.87 4.87 0 00.842 3.694 5.296 5.296 0 005.675 2.097z"/></svg>